P3
10 10
255
128 128 128 128 128 128 128 128 128 128 128 128 128 128 128 128 128 128 128 128 128 128 128 128 128 128 128 128 128 128 128 128 128 192 192 192 192 192 192 192 192 192 0 0 0 0 0 0 192 192 192 192 192 192 192 192 192 192 192 192 128 128 128 192 192 192 128 128 128 0 0 0 0 0 0 255 255 255 255 255 255 128 128 128 0 0 0 128 128 128 128 128 128 0 0 0 0 0 0 0 0 0 255 255 255 255 255 255 65 65 65 65 65 65 192 192 192 255 255 255 128 128 128 0 0 0 255 255 255 255 255 255 255 255 255 0 0 0 65 65 65 255 255 255 255 255 255 0 0 0 128 128 128 0 0 0 255 255 255 0 0 0 0 0 0 0 0 0 255 255 255 255 255 255 65 65 65 0 0 0 128 128 128 0 0 0 255 255 255 0 0 0 255 255 255 255 255 255 255 255 255 65 65 65 65 65 65 216 216 216 128 128 128 192 192 192 255 255 255 0 0 0 255 255 255 0 0 0 65 65 65 65 65 65 216 216 216 255 255 255 128 128 128 192 192 192 128 128 128 65 65 65 255 255 255 0 0 0 255 255 255 255 255 255 255 255 255 104 104 104 128 128 128 192 192 192 128 128 128 192 192 192 255 255 255 0 0 0 255 255 255 65 65 65 65 65 65 65 65 65 